<?xml version="1.0" encoding="utf-8"?>
<!-- Generator: Adobe Illustrator 23.0.2, SVG Export Plug-In . SVG Version: 6.00 Build 0)  -->
<svg version="1.1" id="Layer_2" xmlns="http://www.w3.org/2000/svg" xmlns:xlink="http://www.w3.org/1999/xlink" x="0px" y="0px"
	 viewBox="0 0 256.8 163.3" style="enable-background:new 0 0 256.8 163.3;" xml:space="preserve">
<style type="text/css">
	.st0{fill:none;stroke:#232144;stroke-width:0.67;stroke-linecap:round;stroke-linejoin:round;}
	.st1{opacity:0.3;fill:#77B7B6;enable-background:new    ;}
	.st2{fill:#FFFFFF;}
	.st3{fill:#E6850B;}
	.st4{fill:none;stroke:#232144;stroke-width:0.75;stroke-linecap:round;stroke-linejoin:round;}
	.st5{opacity:0.58;fill:#E0F3FC;enable-background:new    ;}
	.st6{fill:#EFFDFD;}
	
		.st7{opacity:0.34;fill:none;stroke:#232144;stroke-width:0.67;stroke-linecap:round;stroke-linejoin:round;enable-background:new    ;}
	
		.st8{opacity:0.54;fill:none;stroke:#232144;stroke-width:0.67;stroke-linecap:round;stroke-linejoin:round;enable-background:new    ;}
	.st9{fill:#FFB999;}
	.st10{fill:none;stroke:#F57A59;stroke-width:2;stroke-linecap:round;stroke-linejoin:round;}
	.st11{fill:#1671B5;}
	.st12{fill:none;stroke:#6898BC;stroke-width:2;stroke-linecap:round;stroke-linejoin:round;}
	.st13{fill:none;stroke:#FCE6ED;stroke-width:2;stroke-linecap:round;stroke-linejoin:round;}
	.st14{fill:#F57A59;}
	.st15{fill:none;stroke:#0C4066;stroke-width:2;stroke-linecap:round;stroke-linejoin:round;}
	.st16{fill:#0F4C81;}
	.st17{fill:#F4B419;}
	.st18{fill:none;stroke:#232144;stroke-width:0.68;stroke-linecap:round;stroke-linejoin:round;}
	.st19{fill:none;stroke:#232144;stroke-width:0.59;stroke-linecap:round;stroke-linejoin:round;}
	.st20{fill:none;stroke:#232144;stroke-width:0.5;stroke-linecap:round;stroke-linejoin:round;}
	.st21{fill:#29FC97;}
	.st22{fill:#9CF7C9;}
	.st23{fill:none;stroke:#FFFFFF;stroke-width:2;stroke-linecap:round;stroke-linejoin:round;}
	.st24{fill:none;stroke:#232144;stroke-width:0.67;stroke-miterlimit:10;}
	.st25{fill:none;stroke:#FFFFFF;stroke-width:2.51;stroke-miterlimit:10;}
	.st26{fill:none;stroke:#232144;stroke-width:0.84;stroke-linecap:round;stroke-linejoin:round;}
	.st27{fill:#232144;}
	.st28{fill:none;stroke:#232144;stroke-width:0.47;stroke-linecap:round;stroke-linejoin:round;}
	.st29{fill:#F8CC65;}
	.st30{fill:#F7D48D;}
	.st31{fill:none;stroke:#ACD9EA;stroke-width:2.66;stroke-linecap:round;stroke-linejoin:round;}
	.st32{fill:none;stroke:#004172;stroke-width:2;stroke-linecap:round;stroke-linejoin:round;}
	.st33{fill:none;stroke:#FFFFFF;stroke-width:0.67;stroke-linecap:round;stroke-linejoin:round;}
	.st34{fill:none;stroke:#FFFFFF;stroke-width:2;stroke-miterlimit:10;}
	.st35{fill:none;stroke:#F57A59;stroke-width:0.67;stroke-linecap:round;stroke-linejoin:round;}
	.st36{fill:#FFA744;}
	.st37{fill:#F97C00;}
	.st38{fill:none;stroke:#FFDAB6;stroke-width:1.33;stroke-linecap:round;stroke-linejoin:round;}
	.st39{fill:none;stroke:#FFFFFF;stroke-width:1.33;stroke-linecap:round;stroke-linejoin:round;}
	.st40{fill:#9671C3;}
	.st41{fill:#EBDEFF;}
	.st42{fill:#C6A2F9;}
	.st43{opacity:0.51;fill:#E0F3FC;enable-background:new    ;}
	
		.st44{opacity:0.3;fill:none;stroke:#77B7B6;stroke-width:1.33;stroke-linecap:round;stroke-linejoin:round;enable-background:new    ;}
	.st45{fill:none;}
</style>
<g>
	<circle class="st0" cx="26.6" cy="68.9" r="3.4"/>
	<path class="st1" d="M47.9,50.6l26.4,13.1L84.1,44L56.8,31.1C56.8,31.1,53.4,44.2,47.9,50.6z"/>
	<polygon class="st2" points="59.6,36.2 57.4,41.4 63.3,44.2 66.3,39.1 	"/>
	<path class="st3" d="M87.2,79.5c-1.8-1.8,1.4,5,3.5,6.5s4.8,2,7.3,1.4v-8.3C98,79.2,87.3,79.6,87.2,79.5z"/>
	<path class="st4" d="M87.2,79.5c0,2.6,1.4,5,3.5,6.5s4.8,2,7.3,1.4"/>
	<path class="st5" d="M202.4,87.6H254c1.5,0,2.7,1.2,2.7,2.7v37.1c0,1.5-1.2,2.7-2.7,2.7h-51.6c-1.5,0-2.7-1.2-2.7-2.7V90.4
		C199.7,88.8,200.9,87.6,202.4,87.6z"/>
	<g>
		<path class="st6" d="M221.2,87.8l-16.7,42.4l15.4,0.1l13.9-42.4h0C233.8,87.8,221.7,87.6,221.2,87.8L221.2,87.8z"/>
		<path class="st2" d="M236.2,87.8l-14.3,42.4h3.8l14.3-42.4h-1.2C238.7,87.7,236.6,87.6,236.2,87.8L236.2,87.8z"/>
	</g>
	<polygon class="st2" points="221.3,105.3 215.4,108.7 209.5,112.1 209.5,105.3 209.5,98.5 215.4,101.9 	"/>
	<g>
		<circle class="st7" cx="187.2" cy="61.3" r="4.8"/>
		<circle class="st8" cx="187.2" cy="61.3" r="6.8"/>
	</g>
	<path class="st2" d="M181.1,46.5l18.6-5.3c0.7-0.2,1.5,0.2,1.7,0.9l4.6,15.9c0.2,0.7-0.2,1.5-0.9,1.7L186.4,65
		c-0.7,0.2-1.5-0.2-1.7-0.9l-4.6-15.9C180,47.4,180.4,46.7,181.1,46.5z"/>
	<path class="st9" d="M41,100.4c-1.2-3.3-4.4-6.8-4.4-6.8l1.1,1.3l1.1-11.6l-10.1-14l-0.7-0.8C27.2,67.7,27,68,27,68l-0.9,0.2
		c-0.8,0.6-0.6,1.9-0.6,1.9l0.6,1.4l4.9,10l-1.8-0.6c-2.6,0.7-3.1,3.4-3.1,3.4v5c0,0,7.3,5.8,7.5,12.2l4.7,2L41,100.4L41,100.4z"/>
	<path class="st10" d="M34.3,100.8c-0.3-6.9-7.2-11.6-7.2-11.6l-0.1-5c0,0,0.2-1.9,2.1-2.7"/>
	<path class="st11" d="M83.9,163.3h1.9h0V160v-0.1l-0.1-2.9l0.1-0.1l3.5-3.5l-3.5,3.3l0,0l-0.3-3.6c0-0.1,0-0.3,0-0.4l-0.1-1
		c0-0.2,0-0.4,0-0.6L84,133.8l-0.1-1.4l0-0.3l-0.1-1.6l0-0.4v0.4v0v1.6v0.5v1l-1.6,0.9c-6.1,3.6-12.9,5.4-19.9,5.4h-2.1h-1.9
		l-26.7-39l-0.2-0.3c0.1,0,0.9,0.4,2.2,0.7c0,0,0,0,0,0c2,0.4,4.9,0.6,7.3-1c0.2-0.1,0.4-0.3,0.5-0.4l26.4,24.9l12.7-8.5l12.8-10.6
		l9.9-3.5h0h0.1h4.7h3.9h0.7h0.2c1,0,1.9,0.2,2.9,0.5c5.4,1.8,25.2,8.9,40.5,19.2c0,0,17.9-18.8,21.6-28.6v0c0,0,0.4,0.5,1.2,1.1
		c0.2,0.1,0.3,0.3,0.6,0.4l0,0c1.1,0.8,2.5,1.7,4.1,2.3h0c0.2,0.1,0.5,0.2,0.7,0.2h0c0.6,0.2,1.2,0.3,1.9,0.3l-0.1,0.2l-19.6,37.5
		c-0.9,1.6-2.7,2.5-4.5,2l-29.7-7.7l0,0v8.4c0,0.3-0.1,0.6-0.2,1l-2.8,7.5c-0.1,0.3-0.2,0.6-0.2,0.9l0,0.6l0.5,8l0.1,1.6l0.2,3.9
		l0.1,1.6H83.9z"/>
	<polyline class="st12" points="76.7,120 80.9,117.3 89.8,109.9 	"/>
	<path class="st9" d="M179.1,94.6V75.2l6.5-14.7l0.8-0.8c0,0,1.5-1.3,2.4,0s0.3,2.9,0.3,2.9l-0.5,1l-5,10.9l0.9-1.9h4.3l1.4,1.1
		l2.9,4.2l-0.7,5.6l-4,5.7l-3.9,8.2L179.1,94.6z"/>
	<line class="st13" x1="179.9" y1="77.6" x2="179.9" y2="86.2"/>
	<polyline class="st10" points="184.1,96 187.5,89 191.5,83.4 	"/>
	<path class="st9" d="M108,106.9L108,106.9c-2.6,0-5.2-2.2-4.6-4.6V89.9h9.2l0.1,12.5C112.8,105.9,112.6,106.9,108,106.9z"/>
	<path class="st14" d="M103.1,98.8c0,0,4.6,3.1,9.6,0v-6.1h-9.6C103.2,92.8,102.9,98.8,103.1,98.8z"/>
	<line class="st12" x1="45" y1="104.6" x2="63.7" y2="122.7"/>
	<line class="st15" x1="35.5" y1="105.1" x2="56.4" y2="135.7"/>
	<polyline class="st12" points="160.7,118.7 168.4,109.6 171.6,105.6 	"/>
	<path class="st12" d="M121.3,105.9c0,0,18.3,6.5,29.5,13.8"/>
	<path class="st13" d="M129.3,108.9c2.1,0.8,4.4,1.8,6.9,2.9"/>
	<line class="st15" x1="133.2" y1="129.3" x2="161.7" y2="136.5"/>
	<line class="st15" x1="180.1" y1="108.1" x2="166.8" y2="133.2"/>
	<path class="st16" d="M83,132.1c-3.4,2-7,3.6-10.8,4.7c-3.8,1-7.6,1.7-11.4,1.4c-1.3-0.1-1.3,1.9,0,2c3.9,0.3,8.1-0.4,11.9-1.4
		c4-1.1,7.8-2.7,11.3-4.9C85.1,133.2,84.1,131.5,83,132.1L83,132.1L83,132.1z"/>
	<path class="st16" d="M83.1,130.6c-5.3,3.2-11.1,5.2-17.2,5.9c-1.3,0.1-1.3,2.1,0,2c6.5-0.7,12.7-2.8,18.3-6.2
		C85.2,131.7,84.2,129.9,83.1,130.6L83.1,130.6z"/>
	<path class="st16" d="M83.4,128.4c-3.8,2.5-8,4.3-12.4,5.4c-1.2,0.3-0.7,2.2,0.5,1.9c4.6-1.2,8.9-3.1,12.9-5.6
		C85.5,129.4,84.5,127.7,83.4,128.4L83.4,128.4z"/>
	<path class="st16" d="M83.6,126.5c-3.8,2.5-8,4.3-12.4,5.4c-1.2,0.3-0.7,2.2,0.5,1.9c4.6-1.2,8.9-3.1,12.9-5.6
		C85.7,127.5,84.7,125.8,83.6,126.5L83.6,126.5z"/>
	<path class="st16" d="M130.2,161.7l0.1,1.6H85.8l0-3.2l0,0l-0.1-2.9c0,0,0,0,0-0.1c0-0.4-0.1-1.9-0.3-3.9c0-0.1,0-0.3,0-0.4l-0.1-1
		c0-0.2,0-0.4,0-0.6c-0.1-0.8-0.1-1.7-0.2-2.5l0-0.6c-0.1-2.3-0.3-4.6-0.4-6.1c0.2,0.2,0.5,0.4,0.8,0.7c0.5,0.4,1.1,0.9,1.7,1.3
		c12.6,8.3,42.7,12.3,42.7,12.3l0,0l0.1,1.6L130.2,161.7z"/>
	<path class="st17" d="M91.2,69.2c0.6,1.4,1.1,2.8,1.4,4.3c0.5,1.8,0.7,3.9-0.8,5.1c-0.2,0.2-0.4,0.3-0.6,0.3s-1,0.6-1.3,0.4
		c-1.7-0.8-1.6-3.7-2.7-5.1c-0.5-0.6-1.1-1.1-1.6-1.7c-0.6-0.8-0.7-1.7-0.9-2.6c-1-3.8-1.6-8-0.4-11.7s4.2-7.1,8-7.8
		c0.3-0.1,0.7-0.1,0.9-0.3c0.8-0.4,1.1-1.2,1.5-2.1c0.7-1.8,3.4-3.7,5.3-4.1s1.7-0.2,3.6-0.2c1.3,0,3.7,1.1,4.6,2.1
		c0.6,0.8-0.8-0.2,0.2-0.2c6.4,0,10.4,3.5,12.1,7.3c0.4,1,0.7,2,0.7,3c-0.1,1.5-0.2,3.4-0.7,4.8c0.5,1.3,0.8,2.4,1.4,3.8
		c0.5,1.4,0,2.8-1.1,3.9c-0.5,0.6-0.6,1.1-1.3,1.4c-9.1,3-19.2,3.3-27.3,8.4L91.2,69.2z"/>
	<path class="st3" d="M102.6,73.6c-3.6,1-7.1,2.2-10.3,4.2c-0.1,0.1,0,0.4-0.1,0.5c-0.2,0.2-1.1,0.8-1.3,0.9c-0.3,0-0.6-0.2-0.8-0.3
		c-1.7-0.8-1.6-3.7-2.7-5.1c-0.5-0.6-2.8,0.8-3.2,0.1c-0.6-0.8-0.7-2.4-0.6-3.4c0.1-4.6-0.2-9.1,1-12.8c1.2-3.7,4.2-6.4,7.9-7.2
		c1,0.8,1.7,1.2,2.2,2.3c1.5,3,0.7,6.6,1,9.9C96,67.2,98.8,71.3,102.6,73.6L102.6,73.6z"/>
	<path class="st9" d="M119.6,67.7c2.1-0.3,4.1,1.1,4.4,3.2c0.3,2-1,3.9-3,4.3L119.6,67.7z"/>
	<ellipse class="st9" cx="86.7" cy="76.6" rx="3.9" ry="4.4"/>
	<ellipse class="st14" cx="87.6" cy="76.5" rx="3" ry="3.4"/>
	<path class="st9" d="M118.8,64.8l2.1,10.3c0.6,3,0.8,6.1,0.3,9.1c-1.1,6.9-4.7,11.5-11.3,12.9l0,0c-3.8,0.8-7.5-0.3-10.7-2.4
		c-4.6-2.9-7.7-7.7-8.8-13.1l-0.5-2.3c0,0,3-0.1,3.1-3.2c0.1-3.1-2.1-7-2.1-7l1,1.7l3.3-0.9l1.9-1.7l1.3-1.9l2.4,1.2l3.4-0.2
		l2.5-1.6l2,2.1l3.3,0.8l3-1.1L118.8,64.8L118.8,64.8z"/>
	<path class="st14" d="M116.4,94.2c-1.7,1.4-3.8,2.4-6.3,3c-0.8,0.2-1.6,0.2-2.4,0.2c-2.9,0-5.8-1-8.3-2.6
		c-4.6-2.9-7.7-7.7-8.8-13.1l-0.5-2.3c0,0,2.6-0.1,3-2.6c2,9.2,4.6,12.7,8.2,15.4c3.8,2.8,7.8,2.7,10.7,2.7c0.8,0,1.6-0.1,2.5-0.3
		C115.2,94.6,115.8,94.4,116.4,94.2L116.4,94.2z"/>
	<path class="st4" d="M113.6,68.3c0,0,7.5-2.7,7.6-11.6"/>
	<path class="st4" d="M83.6,62.6c-0.7,5.2-0.3,8.8,0.3,10.9"/>
	<ellipse class="st4" cx="86.7" cy="76.6" rx="3.9" ry="4.4"/>
	<g>
		<path class="st18" d="M86.3,74.3c0,0-1.9,1.6-0.4,4.4"/>
		<path class="st18" d="M85.3,76.3c0,0,1.3-0.1,2,1.1"/>
	</g>
	<path class="st19" d="M121.9,71.7c0,0,0-1.1-1.1-1.7"/>
	<path class="st4" d="M119.6,67.7c2.1-0.3,4.1,1.1,4.4,3.2c0.3,2-1,3.9-3,4.3"/>
	<path class="st4" d="M120.3,61.4c0,0,2.4,2.6,1.2,6.5"/>
	<line class="st4" x1="103.3" y1="103.6" x2="103.3" y2="96.6"/>
	<path class="st0" d="M112.5,105.3c-1.7,2.6-6.5,2.3-8.7-0.6"/>
	<line class="st4" x1="112.8" y1="96.6" x2="112.8" y2="103.6"/>
	<path class="st4" d="M112.8,102.4h0.2c1,0,1.9,0.2,2.9,0.5c5.8,2,28.3,10,43.9,21.7"/>
	<path class="st4" d="M156.3,122.1c0,0,17.9-18.8,21.6-28.6c0,0,4,4.2,8.5,4.3l-19.7,37.7c-0.9,1.6-2.7,2.5-4.5,2l-29.8-7.6"/>
	<path class="st4" d="M132.5,126.1v3.6v9c0,0.3-0.1,0.7-0.2,1l-2.8,7.5c-0.1,0.3-0.2,0.6-0.2,0.9l0.5,8l0.1,1.6l0.2,3.9l0.1,1.6"/>
	<polyline class="st4" points="75.6,119.8 80.6,116.5 93.4,105.9 103.3,102.4 	"/>
	<path class="st4" d="M83.8,133.7l-1.6,0.9c-6,3.6-12.9,5.4-19.9,5.4h-4l-26.8-39.3c0,0,6,2.6,10-0.8l26.4,24.9l6.1-4"/>
	<path class="st0" d="M101.8,103.1c0,3.1,3,5.5,6.7,5.5s6.7-2.5,6.7-5.5v-0.3"/>
	<g>
		<polyline class="st0" points="184.5,97.5 188.4,89.3 192.4,83.6 193.1,78.1 190.2,73.8 188.8,72.7 184.5,72.7 		"/>
		<polyline class="st0" points="179.1,94.6 179.1,75.2 185.6,60.6 		"/>
		<line class="st0" x1="188.5" y1="63.7" x2="183.6" y2="74.6"/>
		<path class="st0" d="M186.4,59.8c0,0,1.5-1.3,2.4,0s0.3,2.9,0.3,2.9"/>
	</g>
	<g>
		<line class="st0" x1="209.5" y1="114.3" x2="223.9" y2="114.3"/>
		<line class="st0" x1="209.5" y1="116.3" x2="218.5" y2="116.3"/>
		<line class="st0" x1="209.5" y1="118.4" x2="218.5" y2="118.4"/>
	</g>
	<polygon class="st0" points="221.3,105.3 215.4,108.7 209.5,112.1 209.5,105.3 209.5,98.5 215.4,101.9 	"/>
	<g>
		<circle class="st20" cx="203.8" cy="90.1" r="0.9"/>
		<circle class="st20" cx="207.2" cy="90.1" r="0.9"/>
		<circle class="st20" cx="210.7" cy="90.1" r="0.9"/>
	</g>
	<circle class="st21" cx="144.1" cy="60.5" r="11.4"/>
	<path class="st22" d="M155.4,60.9c0,4.2-2.3,7.9-5.7,9.9c1.3-1.8,2.1-4.1,2.1-6.5c0-6.3-5.1-11.4-11.4-11.4c-2,0-4,0.5-5.6,1.5
		c2.1-2.9,5.4-4.8,9.3-4.8C150.3,49.5,155.4,54.6,155.4,60.9L155.4,60.9z"/>
	<path class="st21" d="M143.4,65.3c-0.3,0-0.5-0.1-0.8-0.2l-5.7-3.3c-0.7-0.4-0.9-1.3-0.5-2c0.4-0.7,1.3-0.9,2-0.5l4.4,2.6l3.8-6.8
		c0.4-0.7,1.3-1,2-0.6c0.7,0.4,1,1.3,0.6,2l-4.5,8.1c-0.2,0.3-0.5,0.6-0.9,0.7C143.6,65.3,143.5,65.3,143.4,65.3L143.4,65.3z"/>
	<path class="st2" d="M143.9,66c-0.3,0-0.5-0.1-0.8-0.2l-5.7-3.3c-0.7-0.4-0.9-1.3-0.5-2c0.4-0.7,1.3-0.9,2-0.5l4.4,2.6l3.8-6.8
		c0.4-0.7,1.3-1,2-0.6c0.7,0.4,1,1.3,0.6,2l-4.5,8.1c-0.2,0.3-0.5,0.6-0.9,0.7C144.1,66,144,66,143.9,66L143.9,66z"/>
	<path class="st23" d="M134.1,56.9c0,0,2.8-7.3,10.6-7"/>
	<circle class="st0" cx="144.1" cy="60.5" r="11.4"/>
	<path class="st24" d="M144,65.9c-0.3,0-0.5-0.1-0.8-0.2l-5.7-3.3c-0.7-0.4-0.9-1.3-0.5-2c0.4-0.7,1.3-0.9,2-0.5l4.4,2.6l3.8-6.8
		c0.4-0.7,1.3-1,2-0.6c0.7,0.4,1,1.3,0.6,2l-4.5,8.1c-0.2,0.3-0.5,0.6-0.9,0.7C144.2,65.9,144.1,65.9,144,65.9L144,65.9z"/>
	<g>
		<g>
			<path class="st0" d="M33.6,101.4c-0.3-6.4-7.5-12.2-7.5-12.2v-5c0,0,0.5-2.7,3.1-3.4"/>
			<path class="st0" d="M36.5,93.6c0,0,3.2,3.4,4.4,6.8"/>
			<polyline class="st0" points="37.6,94.9 38.8,83.3 28.6,69.3 			"/>
			<line class="st0" x1="26.1" y1="71.5" x2="31" y2="81.5"/>
		</g>
		<path class="st0" d="M25.5,70c0,0-0.3-1.3,0.6-1.9"/>
		<path class="st0" d="M27,68c0,0,0.2-0.3,0.9,0.5"/>
	</g>
	<line class="st25" x1="75.3" y1="40" x2="65.4" y2="59.3"/>
	<line class="st25" x1="78.7" y1="41.5" x2="68.9" y2="60.8"/>
	<path class="st26" d="M47.9,50.6l26.4,13.1L84.1,44L56.8,31.1C56.8,31.1,53.4,44.2,47.9,50.6z"/>
	<polygon class="st0" points="59.6,36.2 57.4,41.4 63.3,44.2 66.3,39.1 	"/>
	<line class="st0" x1="56.8" y1="44.2" x2="69.4" y2="50.4"/>
	<line class="st0" x1="56.1" y1="45.8" x2="61.3" y2="48.3"/>
	<line class="st0" x1="54.8" y1="47.8" x2="65.8" y2="53"/>
	<path class="st27" d="M97.9,62.9c0,0.9,0.5,1.8,1.3,2.2c0.3,0.2,0.5-0.3,0.3-0.4c-0.7-0.4-1.1-1.1-1-1.8
		C98.4,62.6,97.9,62.6,97.9,62.9L97.9,62.9z"/>
	<path class="st27" d="M117.7,63.3c0.2-0.2,0.3-0.5,0.4-0.8c0-0.1-0.1-0.3-0.2-0.3c-0.1,0-0.3,0-0.3,0.2c0,0.1-0.1,0.2-0.1,0.2
		l0-0.1c-0.1,0.2-0.2,0.3-0.3,0.5c0,0,0,0.1,0,0.2s0.1,0.1,0.1,0.2c0.1,0,0.1,0,0.2,0S117.7,63.4,117.7,63.3L117.7,63.3L117.7,63.3z
		"/>
	<path class="st27" d="M86.3,57.6c-0.3,0.5-0.6,1-0.8,1.5c0,0.1,0,0.3,0.2,0.3s0.3,0,0.3-0.2c0-0.1,0.1-0.3,0.1-0.4
		c0-0.1,0.1-0.1,0.1-0.2c0,0,0,0,0,0c0,0,0,0,0-0.1c0.1-0.1,0.1-0.2,0.2-0.3c0-0.1,0.1-0.1,0.1-0.2c0,0,0,0,0.1-0.1c0,0,0.1-0.1,0,0
		c0.1-0.1,0.1-0.3,0-0.3C86.6,57.5,86.4,57.5,86.3,57.6L86.3,57.6L86.3,57.6z"/>
	<path class="st27" d="M86.1,69.2c-0.8-2.8-1-5.7-0.6-8.5c0-0.3-0.4-0.5-0.5-0.1c-0.4,2.9-0.2,5.9,0.6,8.8
		C85.7,69.7,86.2,69.5,86.1,69.2L86.1,69.2L86.1,69.2z"/>
	<path class="st0" d="M181.1,46.5l18.6-5.4c0.7-0.2,1.5,0.2,1.7,0.9l4.6,15.9c0.2,0.7-0.2,1.5-0.9,1.7L186.4,65
		c-0.7,0.2-1.5-0.2-1.7-0.9l-4.6-15.9C179.9,47.4,180.4,46.7,181.1,46.5z"/>
	<path class="st27" d="M108.3,64.9c0.9,1.3,2.8,1.8,4.4,1.7c0.9,0,1.7-0.3,2.5-0.7c0.8-0.5,1.4-1.2,2-1.8c0.2-0.2-0.1-0.6-0.3-0.4
		c-1.2,1.2-2.3,2.3-4,2.4c-1.4,0.1-3.2-0.2-4.1-1.4C108.5,64.4,108.1,64.7,108.3,64.9L108.3,64.9L108.3,64.9z"/>
	<g>
		<line class="st28" x1="130" y1="130.7" x2="129.8" y2="126.6"/>
		<line class="st28" x1="129.2" y1="132.2" x2="128.8" y2="128.1"/>
	</g>
	<g>
		<line class="st28" x1="151.4" y1="132.9" x2="155.3" y2="134"/>
		<line class="st28" x1="150.2" y1="131.6" x2="154.2" y2="132.6"/>
	</g>
	<g>
		
			<ellipse transform="matrix(0.6299 -0.7767 0.7767 0.6299 0.3099 110.0152)" class="st29" cx="115.6" cy="54.7" rx="2.9" ry="2.2"/>
		<ellipse transform="matrix(0.96 -0.2798 0.2798 0.96 -11.8609 34.7036)" class="st29" cx="115.6" cy="58.9" rx="1.2" ry="0.9"/>
	</g>
	<path class="st14" d="M94,78.9c0.6-1,0.9-2.4,0.8-3.6c-0.1-1.4-0.4-3-1.1-4.3l-0.6,1.5c1.2-0.3,2.5-0.6,3.6-1.3
		c1.2-0.8,2.1-1.8,2.6-3.1c0.2-0.5,0.1-1.1-0.4-1.4c-0.4-0.3-1.1-0.1-1.4,0.4c-0.4,1-1.1,1.9-2,2.5s-2,0.8-3,1.1
		c-0.7,0.2-0.9,0.9-0.6,1.5c0.3,0.5,0.4,1,0.5,1.6c0.1,0.6,0.3,1.1,0.3,1.7c0.1,0.9-0.1,1.8-0.5,2.6C91.6,78.9,93.3,79.9,94,78.9
		L94,78.9L94,78.9z"/>
	<path class="st4" d="M121.5,79.4c0.1,1.6,0,3.2-0.2,4.8c-1.1,6.9-4.7,11.5-11.3,12.9l0,0c-3.8,0.8-7.5-0.3-10.7-2.4
		c-4.6-2.9-7.7-7.7-8.8-13.1l-0.5-2.3c0,0,3-0.1,3.1-3.2c0.1-3.1-2.1-7-2.1-7"/>
	<path class="st29" d="M97.2,47.9c0.9-1.3,2.4-2.1,4-2.3c1.9-0.3,3.7,0.3,5.3,1.3c1.1,0.7,2.1-1,1-1.7c-2-1.3-4.4-1.9-6.7-1.5
		c-2.1,0.3-4.1,1.5-5.3,3.3c-0.3,0.4-0.1,1.1,0.4,1.4C96.4,48.6,96.9,48.4,97.2,47.9L97.2,47.9L97.2,47.9z"/>
	<path class="st30" d="M97.8,47.3c0.1-0.1,0.3-0.3,0.4-0.4c0,0,0.1-0.1,0.1-0.1c0.2-0.2-0.1,0.1,0,0c0.1,0,0.2-0.1,0.2-0.2
		c0.3-0.2,0.7-0.4,1-0.6c0,0,0.1,0,0.1-0.1c0.1-0.1,0,0-0.1,0c0.1,0,0.2-0.1,0.3-0.1c0.2-0.1,0.3-0.1,0.5-0.2c0.2,0,0.4-0.1,0.6-0.1
		c0.1,0,0.2,0,0.3,0c0.1,0-0.2,0-0.1,0c0.1,0,0.1,0,0.2,0c0.3,0,0.5-0.1,0.7-0.3c0.2-0.2,0.3-0.5,0.3-0.7c0-0.5-0.4-1-1-1
		c-1.9,0.2-3.6,0.9-5,2.3c-0.4,0.4-0.4,1,0,1.4S97.4,47.6,97.8,47.3L97.8,47.3L97.8,47.3z"/>
	<path class="st4" d="M110.4,48.6c0,0-2.1-4.5-7.9-4.7"/>
	<path class="st4" d="M101.5,43.8c-6,0-7.6,6.3-7.6,6.3s-10,1.3-10,10.4"/>
	<path class="st29" d="M111.5,47.9c0.6,0.2,1.3,0.3,1.9,0.6c0.1,0,0.2,0.1,0.2,0.1c0,0,0.1,0,0.1,0c-0.1-0.1-0.2-0.1-0.1,0
		c0.1,0.1,0.3,0.1,0.4,0.2c0.3,0.2,0.6,0.3,0.9,0.5c0.2,0.1,0.5,0.2,0.8,0.1s0.5-0.2,0.6-0.5c0.3-0.5,0.1-1-0.4-1.4
		c-1.2-0.8-2.6-1.2-3.9-1.6c-0.5-0.1-1.1,0.2-1.2,0.7S110.9,47.7,111.5,47.9L111.5,47.9L111.5,47.9z"/>
	<path class="st4" d="M113,46.2c-1.4-0.5-3.1-0.7-5-0.6"/>
	<path class="st4" d="M121,54.9c0,0-1-5.5-6.5-8"/>
	<path class="st29" d="M112.2,52.8c-0.6,0.4-1,1-1.2,1.7c-0.1,0.3-0.1,0.7-0.2,1.1c-0.2,0.6-0.5,1.1-1,1.4c-0.4,0.2-0.8,0.4-1.2,0.2
		c-0.3-0.1-0.6-0.3-0.8-0.6c-0.4-0.4-0.9-0.9-0.8-1.5c0-0.3,0.2-0.5,0.4-0.8c0.3-0.5,0.7-1,1-1.5c0.5-0.7,1-1.5,1.8-1.8
		c0.7-0.3,1.5-0.3,2.2,0c0.6,0.2,1.2,0.6,1.2,1.2c0,0.5-0.6,0.9-1.1,1.2c-0.4,0.2-0.9,0.4-1.4,0.5L112.2,52.8z"/>
	<path class="st15" d="M84.7,131.7c0,0.1,1,13.1,1,13.1"/>
	<path class="st15" d="M86.6,135.1c0,0.1,1,13.1,1,13.1"/>
	<line class="st4" x1="83.8" y1="130.3" x2="85.8" y2="159.9"/>
	<g>
		<path class="st14" d="M98.6,68.5c1.6,0.8,3.2,1.1,4.9,0.8c1.4-0.2,2.9-0.9,3.8-1.9c0.4-0.4,0.4-1,0-1.4c-0.4-0.4-1.1-0.4-1.4,0
			c-0.7,0.8-1.7,1.2-2.8,1.4c-1.1,0.2-2.4,0-3.5-0.6c-0.5-0.2-1.1-0.1-1.4,0.4C98,67.6,98.2,68.3,98.6,68.5L98.6,68.5L98.6,68.5z"/>
		<path class="st14" d="M105.6,67.4c1.2,2.1,3.5,3.2,5.8,3.1c0.5,0,1-0.4,1-1c0-0.5-0.4-1-1-1c-0.3,0-0.5,0-0.7,0
			c-0.1,0-0.1,0-0.2,0c-0.1,0-0.2-0.1,0,0c-0.1,0-0.2,0-0.3-0.1c-0.2-0.1-0.4-0.1-0.7-0.2c-0.1,0-0.1,0-0.2-0.1c0,0-0.2-0.1-0.1,0
			s-0.1,0-0.1,0c-0.1,0-0.1-0.1-0.2-0.1c-0.2-0.1-0.4-0.2-0.6-0.3c0,0-0.2-0.1-0.1-0.1s0,0-0.1-0.1c-0.1-0.1-0.2-0.2-0.3-0.2
			s-0.2-0.2-0.3-0.3c0,0-0.1-0.1-0.1-0.1c0,0-0.1-0.1-0.1-0.1c-0.1-0.1,0,0,0,0.1c0-0.1-0.2-0.2-0.2-0.3c-0.1-0.1-0.1-0.2-0.2-0.3
			c-0.3-0.4-0.9-0.7-1.4-0.4S105.3,66.9,105.6,67.4L105.6,67.4L105.6,67.4z"/>
	</g>
	<path class="st4" d="M103.3,67.5c0,0,3.3-0.2,4-3.8"/>
	<path class="st4" d="M106.8,65.2c0,0,0.8,3.6,5.4,3.4"/>
	<path class="st4" d="M96.8,62.1c0,0-0.1,5.4,5.1,5.4"/>
	<line class="st31" x1="240.2" y1="94" x2="253.1" y2="94.1"/>
	<line class="st31" x1="205" y1="94" x2="213" y2="94"/>
	<path class="st0" d="M202.4,87.6H254c1.5,0,2.7,1.2,2.7,2.7v37.1c0,1.5-1.2,2.7-2.7,2.7h-51.6c-1.5,0-2.7-1.2-2.7-2.7V90.4
		C199.7,88.8,200.9,87.6,202.4,87.6z"/>
	<line class="st32" x1="87.2" y1="159.5" x2="89.6" y2="155.3"/>
	<line class="st0" x1="199.7" y1="92.9" x2="256.8" y2="92.9"/>
	<g>
		<path class="st27" d="M106.8,72.6L106.8,72.6c0.8,0,1.5,0.7,1.5,1.5v1.8c0,0.8-0.7,1.5-1.5,1.5l0,0c-0.8,0-1.5-0.7-1.5-1.5v-1.8
			C105.2,73.2,105.9,72.6,106.8,72.6z"/>
		<circle class="st2" cx="108.1" cy="74.7" r="0.6"/>
	</g>
	<g>
		<path class="st27" d="M116.1,70.9L116.1,70.9c0.8,0,1.5,0.7,1.5,1.5v1.8c0,0.8-0.7,1.5-1.5,1.5l0,0c-0.8,0-1.5-0.7-1.5-1.5v-1.8
			C114.6,71.6,115.3,70.9,116.1,70.9z"/>
		<circle class="st2" cx="117.5" cy="73" r="0.6"/>
	</g>
	<path class="st27" d="M101.9,106.9c0.5,0.8,1.3,1.4,2.2,1.8c0.1,0.1,0.3,0,0.3-0.1c0.1-0.1,0-0.3-0.1-0.3c-0.8-0.3-1.5-0.9-2-1.6
		c-0.1-0.1-0.2-0.2-0.3-0.1C101.8,106.6,101.8,106.8,101.9,106.9L101.9,106.9L101.9,106.9z"/>
	<path class="st27" d="M113.2,108.6c0.6-0.4,1.2-0.8,1.7-1.3c0.1-0.1,0.1-0.3,0-0.3s-0.3-0.1-0.3,0c-0.5,0.5-1,0.9-1.6,1.3
		c-0.1,0.1-0.2,0.2-0.1,0.3C113,108.6,113.1,108.7,113.2,108.6C113.2,108.6,113.2,108.6,113.2,108.6z"/>
	<path class="st27" d="M107.4,109.9c0.7,0.2,1.4,0.2,2.1,0c0.3-0.1,0.2-0.6-0.1-0.5c-0.6,0.2-1.3,0.2-1.9,0
		C107.2,109.3,107.1,109.8,107.4,109.9C107.4,109.9,107.4,109.9,107.4,109.9z"/>
	<polyline class="st4" points="85.8,163.3 85.8,160.1 89.4,153.7 	"/>
	<line class="st33" x1="33.1" y1="76.3" x2="37.3" y2="82.2"/>
	<path class="st1" d="M20.3,79.6l19.4-13.1L30,52L10.4,65.8C10.4,65.8,18.1,73.3,20.3,79.6L20.3,79.6z"/>
	<line class="st34" x1="23.8" y1="56.5" x2="33.3" y2="70.9"/>
	<line class="st34" x1="26.2" y1="54.7" x2="35.7" y2="69.2"/>
	<path class="st0" d="M20.3,79.6l19.4-13.1L30,52L10.4,65.8C10.4,65.8,18.1,73.3,20.3,79.6L20.3,79.6z"/>
	<path class="st35" d="M113,79.2l0.8,1.4c0.7,1.3-0.1,2.8-1.5,3.1l0,0"/>
	<path class="st0" d="M116.2,86.1c-1.4,1.4-3.1,1.7-4.9,1.5c-0.2,0-0.3,0-0.5-0.1"/>
	<path class="st2" d="M117.9,67.2l1.1,5.1c0.1,0.4,0.6,0.6,0.9,0.5c0.4-0.1,0.6-0.5,0.5-0.9l-1.1-5.1c-0.1-0.4-0.6-0.6-0.9-0.5
		C118,66.4,117.8,66.8,117.9,67.2L117.9,67.2z"/>
	<path class="st4" d="M118.8,64.8l2.1,10.3c0.2,0.8,0.3,1.5,0.4,2.3"/>
	<path class="st14" d="M111.4,101.5c-0.3-0.1-0.7-0.2-1-0.3c0,0-0.1,0-0.1,0c-0.1,0-0.1,0,0.1,0c-0.1,0-0.2-0.1-0.3-0.1
		c-0.1-0.1-0.3-0.1-0.4-0.2c-0.1,0-0.1-0.1-0.2-0.1c-0.1,0-0.3-0.2-0.1,0c-0.1-0.1-0.2-0.2-0.3-0.3s-0.2-0.2-0.3-0.3
		c0,0-0.1-0.1-0.1-0.1c0.1,0.1,0.1,0.1,0,0.1c0,0-0.1-0.1-0.1-0.1c-0.1-0.2-0.2-0.4-0.3-0.7l-0.3-0.7c-0.1-0.2-0.4-0.4-0.6-0.5
		c-0.2-0.1-0.6,0-0.8,0.1c-0.5,0.3-0.6,0.9-0.4,1.4l0.3,0.7c0.1,0.3,0.2,0.5,0.4,0.8c0.9,1.2,2.2,2,3.7,2.3c0.5,0.1,1.1-0.1,1.2-0.7
		C112.2,102.3,111.9,101.6,111.4,101.5L111.4,101.5L111.4,101.5z"/>
	<g>
		<path class="st36" d="M231.2,105.2h14.2c0.3,0,0.6,0.3,0.6,0.6V118c0,0.3-0.3,0.6-0.6,0.6h-14.2c-0.3,0-0.6-0.3-0.6-0.6v-12.2
			C230.6,105.5,230.8,105.2,231.2,105.2z"/>
		<path class="st37" d="M230.6,115.8h15.4v1.9c0,0.5-0.4,0.9-0.9,0.9h-13.6c-0.5,0-0.9-0.4-0.9-0.9L230.6,115.8L230.6,115.8
			L230.6,115.8z"/>
		<line class="st38" x1="232.5" y1="105.8" x2="240.7" y2="105.8"/>
		<line class="st39" x1="235.5" y1="105.8" x2="237.6" y2="105.8"/>
		<line class="st0" x1="230.6" y1="112.8" x2="230.6" y2="109.5"/>
		<path class="st0" d="M230.6,107.8v-2c0-0.3,0.3-0.6,0.6-0.6h14.2c0.3,0,0.6,0.3,0.6,0.6V118c0,0.3-0.3,0.6-0.6,0.6h-14.2
			c-0.3,0-0.6-0.3-0.6-0.6v-3.4"/>
	</g>
	<g>
		<path class="st36" d="M58.8,98l12.7-6.4c0.3-0.1,0.6,0,0.8,0.3l5.5,10.9c0.1,0.3,0,0.6-0.3,0.8l-12.7,6.4c-0.3,0.1-0.6,0-0.8-0.3
			l-5.5-10.9C58.4,98.5,58.5,98.1,58.8,98z"/>
		<path class="st37" d="M63.1,107.8l13.7-6.9l0.8,1.7c0.2,0.4,0,0.9-0.4,1.2l-12.2,6.1c-0.4,0.2-0.9,0-1.2-0.4L63.1,107.8
			L63.1,107.8L63.1,107.8z"/>
		<line class="st38" x1="60.3" y1="97.9" x2="67.6" y2="94.2"/>
		<line class="st39" x1="63" y1="96.5" x2="64.9" y2="95.6"/>
		<line class="st0" x1="61.8" y1="105.1" x2="60.3" y2="102.1"/>
		<path class="st0" d="M59.5,100.6l-0.9-1.8c-0.2-0.3,0-0.7,0.3-0.8l12.7-6.3c0.3-0.2,0.7,0,0.8,0.3l5.4,10.9c0.2,0.3,0,0.7-0.3,0.8
			l-12.7,6.3c-0.3,0.2-0.7,0-0.8-0.3l-1.5-3"/>
	</g>
	<g>
		<g>
			<path class="st40" d="M1.6,118.6h23.2c0.9,0,1.6,0.7,1.6,1.6v14.1c0,0.9-0.7,1.6-1.6,1.6H1.6c-0.9,0-1.6-0.7-1.6-1.6v-14.1
				C0,119.3,0.7,118.6,1.6,118.6z"/>
			<path class="st41" d="M11.6,118.8l-6.7,17.1l5.6,0l5.6-17.1h-1.8C14.3,118.9,11.8,118.8,11.6,118.8L11.6,118.8z"/>
			<path class="st41" d="M17.6,118.8l-5.8,17.1h1.5l5.8-17.1h-0.5C18.7,118.8,17.8,118.8,17.6,118.8L17.6,118.8z"/>
			<path class="st42" d="M23.7,118.8l-5.8,17.1h1.5l5.8-17.1h-0.5C24.7,118.8,23.8,118.8,23.7,118.8L23.7,118.8z"/>
			<rect x="3.2" y="121" class="st2" width="7.2" height="4.4"/>
			<g>
				<line class="st0" x1="3.2" y1="127.9" x2="17.6" y2="127.9"/>
				<line class="st0" x1="3.2" y1="129.9" x2="12.1" y2="129.9"/>
				<line class="st0" x1="3.2" y1="131.9" x2="12.1" y2="131.9"/>
			</g>
			<path class="st0" d="M1.6,118.6h23.2c0.9,0,1.6,0.7,1.6,1.6v14.1c0,0.9-0.7,1.6-1.6,1.6H1.6c-0.9,0-1.6-0.7-1.6-1.6v-14.1
				C0,119.3,0.7,118.6,1.6,118.6z"/>
			<rect x="3.2" y="121" class="st0" width="7.2" height="4.4"/>
		</g>
		<g>
			<path class="st36" d="M18.5,129.9l13.9,2.6c0.3,0.1,0.5,0.4,0.5,0.7l-2.3,12c-0.1,0.3-0.4,0.5-0.7,0.5L16,143
				c-0.3-0.1-0.5-0.4-0.5-0.7l2.3-12C17.9,130,18.2,129.8,18.5,129.9z"/>
			<path class="st37" d="M16,140.2l15.1,2.9l-0.3,1.8c-0.1,0.5-0.5,0.8-1,0.7L16.3,143c-0.5-0.1-0.8-0.5-0.7-1L16,140.2L16,140.2
				L16,140.2z"/>
			<line class="st38" x1="19.7" y1="130.7" x2="27.9" y2="132.2"/>
			<line class="st39" x1="22.7" y1="131.2" x2="24.8" y2="131.6"/>
			<line class="st0" x1="16.6" y1="137.3" x2="17.2" y2="134"/>
			<path class="st0" d="M17.5,132.4l0.4-2c0.1-0.3,0.4-0.5,0.7-0.5l13.9,2.6c0.3,0.1,0.5,0.4,0.5,0.7l-2.3,12
				c-0.1,0.3-0.4,0.5-0.7,0.5L16.1,143c-0.3-0.1-0.5-0.4-0.5-0.7l0.6-3.3"/>
		</g>
	</g>
	<g>
		<path class="st36" d="M228.9,26.7l13.6-4c0.3-0.1,0.6,0.1,0.7,0.4l3.5,11.7c0.1,0.3-0.1,0.6-0.4,0.7l-13.6,4
			c-0.3,0.1-0.6-0.1-0.7-0.4l-3.5-11.7C228.5,27.2,228.6,26.8,228.9,26.7z"/>
		<path class="st37" d="M231.4,37.1l14.7-4.4l0.5,1.8c0.1,0.5-0.1,0.9-0.6,1.1L233,39.5c-0.5,0.1-0.9-0.1-1.1-0.6L231.4,37.1
			L231.4,37.1L231.4,37.1z"/>
		<line class="st38" x1="230.4" y1="26.9" x2="238.3" y2="24.5"/>
		<line class="st39" x1="233.3" y1="26" x2="235.3" y2="25.4"/>
		<line class="st0" x1="230.6" y1="34.2" x2="229.7" y2="31"/>
		<path class="st0" d="M229.2,29.4l-0.6-2c-0.1-0.3,0.1-0.6,0.4-0.7l13.6-4c0.3-0.1,0.6,0.1,0.7,0.4l3.5,11.7
			c0.1,0.3-0.1,0.7-0.4,0.7l-13.6,4c-0.3,0.1-0.6-0.1-0.7-0.4l-1-3.2"/>
	</g>
	<g>
		<path class="st36" d="M210.5,28.7l13.6-4c0.3-0.1,0.6,0.1,0.7,0.4l3.5,11.7c0.1,0.3-0.1,0.6-0.4,0.7l-13.6,4
			c-0.3,0.1-0.6-0.1-0.7-0.4l-3.5-11.7C210,29.1,210.2,28.8,210.5,28.7z"/>
		<path class="st37" d="M212.9,39.1l14.7-4.4l0.5,1.8c0.1,0.5-0.1,0.9-0.6,1.1l-13.1,3.9c-0.5,0.1-0.9-0.1-1.1-0.6L212.9,39.1
			L212.9,39.1L212.9,39.1z"/>
		<line class="st38" x1="211.9" y1="28.9" x2="219.8" y2="26.5"/>
		<line class="st39" x1="214.8" y1="28" x2="216.9" y2="27.4"/>
		<line class="st0" x1="212.1" y1="36.2" x2="211.2" y2="33"/>
		<path class="st0" d="M210.7,31.4l-0.6-2c-0.1-0.3,0.1-0.6,0.4-0.7l13.6-4c0.3-0.1,0.6,0.1,0.7,0.4l3.5,11.7
			c0.1,0.3-0.1,0.7-0.4,0.7l-13.6,4c-0.3,0.1-0.6-0.1-0.7-0.4l-1-3.2"/>
	</g>
	<path class="st43" d="M171.9,18.8l62.7-18.6c2.5-0.7,5.1,0.7,5.8,3.2l13.2,44.4c0.7,2.5-0.7,5.1-3.2,5.8l-62.7,18.6
		c-2.5,0.7-5.1-0.7-5.8-3.2l-13.2-44.4C168,22.1,169.4,19.5,171.9,18.8z"/>
	<line class="st31" x1="175.8" y1="26.6" x2="190.7" y2="22.3"/>
	<line class="st31" x1="216.8" y1="14.5" x2="231.8" y2="10.2"/>
	<path class="st0" d="M171.9,18.8l62.7-18.6c2.5-0.7,5.1,0.7,5.8,3.2l13.2,44.4c0.7,2.5-0.7,5.1-3.2,5.8l-62.7,18.6
		c-2.5,0.7-5.1-0.7-5.8-3.2l-13.2-44.4C168,22.1,169.4,19.5,171.9,18.8z"/>
	<path class="st0" d="M169.6,27.4c0.1,0.3,71.7-21.3,71.7-21.3"/>
	<g>
		<circle class="st27" cx="173.8" cy="22.3" r="0.9"/>
		<circle class="st27" cx="176.8" cy="21.4" r="0.9"/>
		<circle class="st27" cx="179.7" cy="20.4" r="0.9"/>
	</g>
	<g>
		<line class="st44" x1="136.7" y1="77.8" x2="163.3" y2="69.8"/>
		<line class="st44" x1="141.5" y1="81.3" x2="168.1" y2="73.3"/>
		<line class="st44" x1="148.6" y1="84.1" x2="175.2" y2="76.2"/>
	</g>
	<path class="st4" d="M91.9,70.9c0,0,4,0.4,6.5-4.5"/>
	<line class="st45" x1="85.8" y1="163.3" x2="85.8" y2="163.3"/>
</g>
</svg>
